STARTFONT 2.1
COMMENT Exported by Fony v1.4.7
FONT SYS6X7
SIZE 7 96 96
FONTBOUNDINGBOX 9 6 0 -1
STARTPROPERTIES 6
COPYRIGHT "Created with Fony 1.4.7"
RESOLUTION_X 96
RESOLUTION_Y 96
FONT_ASCENT 6
FONT_DESCENT 1
DEFAULT_CHAR 0
ENDPROPERTIES
CHARS 256
STARTCHAR 000
ENCODING 0
SWIDTH 360 0
DWIDTH 5 0
BBX 5 7 0 -1
BITMAP
38
70
88
90
90
88
70
ENDCHAR
STARTCHAR 001
ENCODING 1
SWIDTH 648 0
DWIDTH 9 0
BBX 9 7 0 -1
BITMAP
0000
0000
0000
0000
0000
0000
0000
ENDCHAR
STARTCHAR 002
ENCODING 2
SWIDTH 648 0
DWIDTH 9 0
BBX 9 7 0 -1
BITMAP
0000
0000
0000
0000
0000
0000
0000
ENDCHAR
STARTCHAR 003
ENCODING 3
SWIDTH 648 0
DWIDTH 9 0
BBX 9 7 0 -1
BITMAP
0000
0000
0000
0000
0000
0000
0000
ENDCHAR
STARTCHAR 004
ENCODING 4
SWIDTH 648 0
DWIDTH 9 0
BBX 9 7 0 -1
BITMAP
0000
0000
0000
0000
0000
0000
0000
ENDCHAR
STARTCHAR 005
ENCODING 5
SWIDTH 648 0
DWIDTH 9 0
BBX 9 7 0 -1
BITMAP
0000
0000
0000
0000
0000
0000
0000
ENDCHAR
STARTCHAR 006
ENCODING 6
SWIDTH 648 0
DWIDTH 9 0
BBX 9 7 0 -1
BITMAP
0000
0000
0000
0000
0000
0000
0000
ENDCHAR
STARTCHAR 007
ENCODING 7
SWIDTH 648 0
DWIDTH 9 0
BBX 9 7 0 -1
BITMAP
0000
0000
3000
7800
7800
3000
0000
ENDCHAR
STARTCHAR 008
ENCODING 8
SWIDTH 648 0
DWIDTH 9 0
BBX 9 7 0 -1
BITMAP
FC00
FC00
CC00
8400
8400
CC00
FC00
ENDCHAR
STARTCHAR 009
ENCODING 9
SWIDTH 648 0
DWIDTH 9 0
BBX 9 7 0 -1
BITMAP
0000
0000
0000
0000
0000
0000
0000
ENDCHAR
STARTCHAR 010
ENCODING 10
SWIDTH 648 0
DWIDTH 9 0
BBX 9 7 0 -1
BITMAP
0000
0000
0000
0000
0000
0000
0000
ENDCHAR
STARTCHAR 011
ENCODING 11
SWIDTH 648 0
DWIDTH 9 0
BBX 9 7 0 -1
BITMAP
3800
1800
6800
9000
9000
6000
0000
ENDCHAR
STARTCHAR 012
ENCODING 12
SWIDTH 648 0
DWIDTH 9 0
BBX 9 7 0 -1
BITMAP
7000
8800
7000
2000
7000
2000
0000
ENDCHAR
STARTCHAR 013
ENCODING 13
SWIDTH 648 0
DWIDTH 9 0
BBX 9 7 0 -1
BITMAP
0000
0000
0000
0000
0000
0000
0000
ENDCHAR
STARTCHAR 014
ENCODING 14
SWIDTH 648 0
DWIDTH 9 0
BBX 9 7 0 -1
BITMAP
7800
4800
7800
4800
5800
C000
0000
ENDCHAR
STARTCHAR 015
ENCODING 15
SWIDTH 648 0
DWIDTH 9 0
BBX 9 7 0 -1
BITMAP
0000
A800
5000
A800
5000
A800
0000
ENDCHAR
STARTCHAR 016
ENCODING 16
SWIDTH 648 0
DWIDTH 9 0
BBX 9 7 0 -1
BITMAP
2000
2000
2000
F800
2000
2000
2000
ENDCHAR
STARTCHAR 017
ENCODING 17
SWIDTH 648 0
DWIDTH 9 0
BBX 9 7 0 -1
BITMAP
0000
2000
6000
E000
6000
2000
0000
ENDCHAR
STARTCHAR 018
ENCODING 18
SWIDTH 648 0
DWIDTH 9 0
BBX 9 7 0 -1
BITMAP
2000
7000
A800
2000
A800
7000
2000
ENDCHAR
STARTCHAR 019
ENCODING 19
SWIDTH 648 0
DWIDTH 9 0
BBX 9 7 0 -1
BITMAP
0000
A000
A000
A000
0000
A000
0000
ENDCHAR
STARTCHAR 020
ENCODING 20
SWIDTH 648 0
DWIDTH 9 0
BBX 9 7 0 -1
BITMAP
7800
A800
A800
6800
2800
2800
0000
ENDCHAR
STARTCHAR 021
ENCODING 21
SWIDTH 648 0
DWIDTH 9 0
BBX 9 7 0 -1
BITMAP
2000
2000
2000
F800
0000
0000
0000
ENDCHAR
STARTCHAR 022
ENCODING 22
SWIDTH 648 0
DWIDTH 9 0
BBX 9 7 0 -1
BITMAP
0000
0000
0000
F800
2000
2000
2000
ENDCHAR
STARTCHAR 023
ENCODING 23
SWIDTH 648 0
DWIDTH 9 0
BBX 9 7 0 -1
BITMAP
2000
2000
2000
E000
2000
2000
2000
ENDCHAR
STARTCHAR 024
ENCODING 24
SWIDTH 648 0
DWIDTH 9 0
BBX 9 7 0 -1
BITMAP
2000
7000
A800
2000
2000
2000
2000
ENDCHAR
STARTCHAR 025
ENCODING 25
SWIDTH 648 0
DWIDTH 9 0
BBX 9 7 0 -1
BITMAP
8000
8000
8000
E000
8000
8000
8000
ENDCHAR
STARTCHAR 026
ENCODING 26
SWIDTH 648 0
DWIDTH 9 0
BBX 9 7 0 -1
BITMAP
0000
2000
1000
F800
1000
2000
0000
ENDCHAR
STARTCHAR 027
ENCODING 27
SWIDTH 648 0
DWIDTH 9 0
BBX 9 7 0 -1
BITMAP
0000
2000
4000
F800
4000
2000
0000
ENDCHAR
STARTCHAR 028
ENCODING 28
SWIDTH 648 0
DWIDTH 9 0
BBX 9 7 0 -1
BITMAP
0000
0000
0000
0000
0000
0000
0000
ENDCHAR
STARTCHAR 029
ENCODING 29
SWIDTH 648 0
DWIDTH 9 0
BBX 9 7 0 -1
BITMAP
0000
0000
0000
0000
0000
0000
0000
ENDCHAR
STARTCHAR 030
ENCODING 30
SWIDTH 648 0
DWIDTH 9 0
BBX 9 7 0 -1
BITMAP
0000
0000
0000
0000
0000
0000
0000
ENDCHAR
STARTCHAR 031
ENCODING 31
SWIDTH 648 0
DWIDTH 9 0
BBX 9 7 0 -1
BITMAP
0000
0000
0000
0000
0000
0000
0000
ENDCHAR
STARTCHAR 032
ENCODING 32
SWIDTH 504 0
DWIDTH 7 0
BBX 7 7 0 -1
BITMAP
00
00
00
00
00
00
00
ENDCHAR
STARTCHAR 033
ENCODING 33
SWIDTH 648 0
DWIDTH 9 0
BBX 9 7 0 -1
BITMAP
8000
8000
8000
8000
0000
8000
0000
ENDCHAR
STARTCHAR 034
ENCODING 34
SWIDTH 648 0
DWIDTH 9 0
BBX 9 7 0 -1
BITMAP
D800
4800
9000
0000
0000
0000
0000
ENDCHAR
STARTCHAR 035
ENCODING 35
SWIDTH 648 0
DWIDTH 9 0
BBX 9 7 0 -1
BITMAP
0000
5000
F800
5000
F800
5000
0000
ENDCHAR
STARTCHAR 036
ENCODING 36
SWIDTH 648 0
DWIDTH 9 0
BBX 9 7 0 -1
BITMAP
2000
7000
8000
6000
1000
E000
4000
ENDCHAR
STARTCHAR 037
ENCODING 37
SWIDTH 648 0
DWIDTH 9 0
BBX 9 7 0 -1
BITMAP
9000
9000
2000
4000
9000
9000
0000
ENDCHAR
STARTCHAR 038
ENCODING 38
SWIDTH 648 0
DWIDTH 9 0
BBX 9 7 0 -1
BITMAP
6000
9000
6000
6800
9000
6800
0000
ENDCHAR
STARTCHAR 039
ENCODING 39
SWIDTH 648 0
DWIDTH 9 0
BBX 9 7 0 -1
BITMAP
C000
4000
8000
0000
0000
0000
0000
ENDCHAR
STARTCHAR 040
ENCODING 40
SWIDTH 648 0
DWIDTH 9 0
BBX 9 7 0 -1
BITMAP
4000
8000
8000
8000
8000
4000
0000
ENDCHAR
STARTCHAR 041
ENCODING 41
SWIDTH 648 0
DWIDTH 9 0
BBX 9 7 0 -1
BITMAP
8000
4000
4000
4000
4000
8000
0000
ENDCHAR
STARTCHAR 042
ENCODING 42
SWIDTH 648 0
DWIDTH 9 0
BBX 9 7 0 -1
BITMAP
0000
2000
A800
7000
A800
2000
0000
ENDCHAR
STARTCHAR 043
ENCODING 43
SWIDTH 648 0
DWIDTH 9 0
BBX 9 7 0 -1
BITMAP
0000
2000
2000
F800
2000
2000
0000
ENDCHAR
STARTCHAR 044
ENCODING 44
SWIDTH 648 0
DWIDTH 9 0
BBX 9 7 0 -1
BITMAP
0000
0000
0000
0000
4000
4000
8000
ENDCHAR
STARTCHAR 045
ENCODING 45
SWIDTH 648 0
DWIDTH 9 0
BBX 9 7 0 -1
BITMAP
0000
0000
0000
E000
0000
0000
0000
ENDCHAR
STARTCHAR 046
ENCODING 46
SWIDTH 648 0
DWIDTH 9 0
BBX 9 7 0 -1
BITMAP
0000
0000
0000
0000
0000
8000
0000
ENDCHAR
STARTCHAR 047
ENCODING 47
SWIDTH 648 0
DWIDTH 9 0
BBX 9 7 0 -1
BITMAP
2000
2000
4000
4000
8000
8000
0000
ENDCHAR
STARTCHAR 048
ENCODING 48
SWIDTH 288 0
DWIDTH 4 0
BBX 4 7 0 -1
BITMAP
60
90
B0
D0
90
60
00
ENDCHAR
STARTCHAR 049
ENCODING 49
SWIDTH 216 0
DWIDTH 3 0
BBX 3 7 0 -1
BITMAP
40
C0
40
40
40
E0
00
ENDCHAR
STARTCHAR 050
ENCODING 50
SWIDTH 288 0
DWIDTH 4 0
BBX 4 7 0 -1
BITMAP
60
90
20
40
80
F0
00
ENDCHAR
STARTCHAR 051
ENCODING 51
SWIDTH 288 0
DWIDTH 4 0
BBX 4 7 0 -1
BITMAP
60
90
20
10
90
60
00
ENDCHAR
STARTCHAR 052
ENCODING 52
SWIDTH 288 0
DWIDTH 4 0
BBX 4 7 0 -1
BITMAP
80
80
80
A0
F0
20
00
ENDCHAR
STARTCHAR 053
ENCODING 53
SWIDTH 288 0
DWIDTH 4 0
BBX 4 7 0 -1
BITMAP
F0
80
E0
10
90
60
00
ENDCHAR
STARTCHAR 054
ENCODING 54
SWIDTH 648 0
DWIDTH 9 0
BBX 9 7 0 -1
BITMAP
7000
8000
E000
9000
9000
6000
0000
ENDCHAR
STARTCHAR 055
ENCODING 55
SWIDTH 648 0
DWIDTH 9 0
BBX 9 7 0 -1
BITMAP
E000
2000
4000
4000
8000
8000
0000
ENDCHAR
STARTCHAR 056
ENCODING 56
SWIDTH 648 0
DWIDTH 9 0
BBX 9 7 0 -1
BITMAP
6000
9000
6000
9000
9000
6000
0000
ENDCHAR
STARTCHAR 057
ENCODING 57
SWIDTH 648 0
DWIDTH 9 0
BBX 9 7 0 -1
BITMAP
6000
9000
7000
1000
1000
E000
0000
ENDCHAR
STARTCHAR 058
ENCODING 58
SWIDTH 648 0
DWIDTH 9 0
BBX 9 7 0 -1
BITMAP
0000
8000
0000
0000
8000
0000
0000
ENDCHAR
STARTCHAR 059
ENCODING 59
SWIDTH 648 0
DWIDTH 9 0
BBX 9 7 0 -1
BITMAP
0000
0000
4000
0000
4000
4000
8000
ENDCHAR
STARTCHAR 060
ENCODING 60
SWIDTH 648 0
DWIDTH 9 0
BBX 9 7 0 -1
BITMAP
0000
2000
4000
8000
4000
2000
0000
ENDCHAR
STARTCHAR 061
ENCODING 61
SWIDTH 648 0
DWIDTH 9 0
BBX 9 7 0 -1
BITMAP
0000
0000
E000
0000
E000
0000
0000
ENDCHAR
STARTCHAR 062
ENCODING 62
SWIDTH 648 0
DWIDTH 9 0
BBX 9 7 0 -1
BITMAP
0000
8000
4000
2000
4000
8000
0000
ENDCHAR
STARTCHAR 063
ENCODING 63
SWIDTH 648 0
DWIDTH 9 0
BBX 9 7 0 -1
BITMAP
7000
8800
1000
2000
0000
2000
0000
ENDCHAR
STARTCHAR 064
ENCODING 64
SWIDTH 648 0
DWIDTH 9 0
BBX 9 7 0 -1
BITMAP
7000
8800
A800
A800
A800
A800
B000
ENDCHAR
STARTCHAR 065
ENCODING 65
SWIDTH 648 0
DWIDTH 9 0
BBX 9 7 0 -1
BITMAP
2000
2000
5000
7000
8800
8800
0000
ENDCHAR
STARTCHAR 066
ENCODING 66
SWIDTH 648 0
DWIDTH 9 0
BBX 9 7 0 -1
BITMAP
E000
9000
E000
9000
9000
E000
0000
ENDCHAR
STARTCHAR 067
ENCODING 67
SWIDTH 648 0
DWIDTH 9 0
BBX 9 7 0 -1
BITMAP
6000
9000
8000
8000
9000
6000
0000
ENDCHAR
STARTCHAR 068
ENCODING 68
SWIDTH 648 0
DWIDTH 9 0
BBX 9 7 0 -1
BITMAP
E000
9000
9000
9000
9000
E000
0000
ENDCHAR
STARTCHAR 069
ENCODING 69
SWIDTH 648 0
DWIDTH 9 0
BBX 9 7 0 -1
BITMAP
E000
8000
C000
8000
8000
E000
0000
ENDCHAR
STARTCHAR 070
ENCODING 70
SWIDTH 648 0
DWIDTH 9 0
BBX 9 7 0 -1
BITMAP
E000
8000
C000
8000
8000
8000
0000
ENDCHAR
STARTCHAR 071
ENCODING 71
SWIDTH 648 0
DWIDTH 9 0
BBX 9 7 0 -1
BITMAP
6000
9000
8000
B000
9000
6000
0000
ENDCHAR
STARTCHAR 072
ENCODING 72
SWIDTH 648 0
DWIDTH 9 0
BBX 9 7 0 -1
BITMAP
A000
A000
A000
E000
A000
A000
0000
ENDCHAR
STARTCHAR 073
ENCODING 73
SWIDTH 648 0
DWIDTH 9 0
BBX 9 7 0 -1
BITMAP
E000
4000
4000
4000
4000
E000
0000
ENDCHAR
STARTCHAR 074
ENCODING 74
SWIDTH 648 0
DWIDTH 9 0
BBX 9 7 0 -1
BITMAP
E000
4000
4000
4000
4000
8000
0000
ENDCHAR
STARTCHAR 075
ENCODING 75
SWIDTH 648 0
DWIDTH 9 0
BBX 9 7 0 -1
BITMAP
8000
9000
A000
C000
A000
9000
0000
ENDCHAR
STARTCHAR 076
ENCODING 76
SWIDTH 648 0
DWIDTH 9 0
BBX 9 7 0 -1
BITMAP
8000
8000
8000
8000
8000
E000
0000
ENDCHAR
STARTCHAR 077
ENCODING 77
SWIDTH 648 0
DWIDTH 9 0
BBX 9 7 0 -1
BITMAP
8800
D800
A800
8800
8800
8800
0000
ENDCHAR
STARTCHAR 078
ENCODING 78
SWIDTH 648 0
DWIDTH 9 0
BBX 9 7 0 -1
BITMAP
9000
D000
B000
9000
9000
9000
0000
ENDCHAR
STARTCHAR 079
ENCODING 79
SWIDTH 648 0
DWIDTH 9 0
BBX 9 7 0 -1
BITMAP
6000
9000
9000
9000
9000
6000
0000
ENDCHAR
STARTCHAR 080
ENCODING 80
SWIDTH 648 0
DWIDTH 9 0
BBX 9 7 0 -1
BITMAP
E000
9000
E000
8000
8000
8000
0000
ENDCHAR
STARTCHAR 081
ENCODING 81
SWIDTH 648 0
DWIDTH 9 0
BBX 9 7 0 -1
BITMAP
6000
9000
9000
9000
A000
5000
0000
ENDCHAR
STARTCHAR 082
ENCODING 82
SWIDTH 648 0
DWIDTH 9 0
BBX 9 7 0 -1
BITMAP
E000
9000
E000
C000
A000
9000
0000
ENDCHAR
STARTCHAR 083
ENCODING 83
SWIDTH 648 0
DWIDTH 9 0
BBX 9 7 0 -1
BITMAP
6000
8000
6000
1000
9000
6000
0000
ENDCHAR
STARTCHAR 084
ENCODING 84
SWIDTH 648 0
DWIDTH 9 0
BBX 9 7 0 -1
BITMAP
E000
4000
4000
4000
4000
4000
0000
ENDCHAR
STARTCHAR 085
ENCODING 85
SWIDTH 648 0
DWIDTH 9 0
BBX 9 7 0 -1
BITMAP
9000
9000
9000
9000
9000
6000
0000
ENDCHAR
STARTCHAR 086
ENCODING 86
SWIDTH 648 0
DWIDTH 9 0
BBX 9 7 0 -1
BITMAP
8800
8800
5000
5000
2000
2000
0000
ENDCHAR
STARTCHAR 087
ENCODING 87
SWIDTH 648 0
DWIDTH 9 0
BBX 9 7 0 -1
BITMAP
8800
8800
8800
A800
D800
8800
0000
ENDCHAR
STARTCHAR 088
ENCODING 88
SWIDTH 648 0
DWIDTH 9 0
BBX 9 7 0 -1
BITMAP
A000
A000
4000
4000
A000
A000
0000
ENDCHAR
STARTCHAR 089
ENCODING 89
SWIDTH 648 0
DWIDTH 9 0
BBX 9 7 0 -1
BITMAP
A000
A000
A000
4000
4000
4000
0000
ENDCHAR
STARTCHAR 090
ENCODING 90
SWIDTH 648 0
DWIDTH 9 0
BBX 9 7 0 -1
BITMAP
E000
2000
4000
4000
8000
E000
0000
ENDCHAR
STARTCHAR 091
ENCODING 91
SWIDTH 648 0
DWIDTH 9 0
BBX 9 7 0 -1
BITMAP
C000
8000
8000
8000
8000
C000
0000
ENDCHAR
STARTCHAR 092
ENCODING 92
SWIDTH 648 0
DWIDTH 9 0
BBX 9 7 0 -1
BITMAP
8000
8000
4000
4000
2000
2000
0000
ENDCHAR
STARTCHAR 093
ENCODING 93
SWIDTH 648 0
DWIDTH 9 0
BBX 9 7 0 -1
BITMAP
C000
4000
4000
4000
4000
C000
0000
ENDCHAR
STARTCHAR 094
ENCODING 94
SWIDTH 648 0
DWIDTH 9 0
BBX 9 7 0 -1
BITMAP
2000
5000
8800
0000
0000
0000
0000
ENDCHAR
STARTCHAR 095
ENCODING 95
SWIDTH 648 0
DWIDTH 9 0
BBX 9 7 0 -1
BITMAP
0000
0000
0000
0000
0000
0000
F800
ENDCHAR
STARTCHAR 096
ENCODING 96
SWIDTH 648 0
DWIDTH 9 0
BBX 9 7 0 -1
BITMAP
8000
4000
2000
0000
0000
0000
0000
ENDCHAR
STARTCHAR 097
ENCODING 97
SWIDTH 648 0
DWIDTH 9 0
BBX 9 7 0 -1
BITMAP
0000
C000
2000
6000
A000
6000
0000
ENDCHAR
STARTCHAR 098
ENCODING 98
SWIDTH 648 0
DWIDTH 9 0
BBX 9 7 0 -1
BITMAP
0000
8000
C000
A000
A000
C000
0000
ENDCHAR
STARTCHAR 099
ENCODING 99
SWIDTH 648 0
DWIDTH 9 0
BBX 9 7 0 -1
BITMAP
0000
4000
A000
8000
A000
4000
0000
ENDCHAR
STARTCHAR 100
ENCODING 100
SWIDTH 648 0
DWIDTH 9 0
BBX 9 7 0 -1
BITMAP
0000
2000
6000
A000
A000
6000
0000
ENDCHAR
STARTCHAR 101
ENCODING 101
SWIDTH 648 0
DWIDTH 9 0
BBX 9 7 0 -1
BITMAP
0000
4000
A000
E000
8000
6000
0000
ENDCHAR
STARTCHAR 102
ENCODING 102
SWIDTH 648 0
DWIDTH 9 0
BBX 9 7 0 -1
BITMAP
0000
6000
8000
C000
8000
8000
0000
ENDCHAR
STARTCHAR 103
ENCODING 103
SWIDTH 648 0
DWIDTH 9 0
BBX 9 7 0 -1
BITMAP
0000
7000
9000
9000
7000
1000
6000
ENDCHAR
STARTCHAR 104
ENCODING 104
SWIDTH 648 0
DWIDTH 9 0
BBX 9 7 0 -1
BITMAP
0000
8000
8000
E000
9000
9000
0000
ENDCHAR
STARTCHAR 105
ENCODING 105
SWIDTH 648 0
DWIDTH 9 0
BBX 9 7 0 -1
BITMAP
0000
8000
0000
8000
8000
8000
0000
ENDCHAR
STARTCHAR 106
ENCODING 106
SWIDTH 648 0
DWIDTH 9 0
BBX 9 7 0 -1
BITMAP
0000
4000
0000
4000
4000
4000
8000
ENDCHAR
STARTCHAR 107
ENCODING 107
SWIDTH 648 0
DWIDTH 9 0
BBX 9 7 0 -1
BITMAP
0000
8000
8000
A000
C000
A000
0000
ENDCHAR
STARTCHAR 108
ENCODING 108
SWIDTH 648 0
DWIDTH 9 0
BBX 9 7 0 -1
BITMAP
0000
8000
8000
8000
8000
8000
0000
ENDCHAR
STARTCHAR 109
ENCODING 109
SWIDTH 648 0
DWIDTH 9 0
BBX 9 7 0 -1
BITMAP
0000
5000
A800
A800
A800
A800
0000
ENDCHAR
STARTCHAR 110
ENCODING 110
SWIDTH 648 0
DWIDTH 9 0
BBX 9 7 0 -1
BITMAP
0000
C000
A000
A000
A000
A000
0000
ENDCHAR
STARTCHAR 111
ENCODING 111
SWIDTH 648 0
DWIDTH 9 0
BBX 9 7 0 -1
BITMAP
0000
4000
A000
A000
A000
4000
0000
ENDCHAR
STARTCHAR 112
ENCODING 112
SWIDTH 648 0
DWIDTH 9 0
BBX 9 7 0 -1
BITMAP
0000
E000
9000
9000
9000
E000
8000
ENDCHAR
STARTCHAR 113
ENCODING 113
SWIDTH 648 0
DWIDTH 9 0
BBX 9 7 0 -1
BITMAP
0000
7000
9000
9000
9000
7000
1000
ENDCHAR
STARTCHAR 114
ENCODING 114
SWIDTH 648 0
DWIDTH 9 0
BBX 9 7 0 -1
BITMAP
0000
B000
C000
8000
8000
8000
0000
ENDCHAR
STARTCHAR 115
ENCODING 115
SWIDTH 648 0
DWIDTH 9 0
BBX 9 7 0 -1
BITMAP
0000
7000
8000
6000
1000
E000
0000
ENDCHAR
STARTCHAR 116
ENCODING 116
SWIDTH 648 0
DWIDTH 9 0
BBX 9 7 0 -1
BITMAP
0000
8000
C000
8000
8000
6000
0000
ENDCHAR
STARTCHAR 117
ENCODING 117
SWIDTH 648 0
DWIDTH 9 0
BBX 9 7 0 -1
BITMAP
0000
A000
A000
A000
A000
4000
0000
ENDCHAR
STARTCHAR 118
ENCODING 118
SWIDTH 648 0
DWIDTH 9 0
BBX 9 7 0 -1
BITMAP
0000
8800
8800
5000
5000
2000
0000
ENDCHAR
STARTCHAR 119
ENCODING 119
SWIDTH 648 0
DWIDTH 9 0
BBX 9 7 0 -1
BITMAP
0000
A800
A800
A800
A800
5000
0000
ENDCHAR
STARTCHAR 120
ENCODING 120
SWIDTH 648 0
DWIDTH 9 0
BBX 9 7 0 -1
BITMAP
0000
A000
A000
4000
A000
A000
0000
ENDCHAR
STARTCHAR 121
ENCODING 121
SWIDTH 648 0
DWIDTH 9 0
BBX 9 7 0 -1
BITMAP
0000
9000
9000
7000
1000
E000
0000
ENDCHAR
STARTCHAR 122
ENCODING 122
SWIDTH 648 0
DWIDTH 9 0
BBX 9 7 0 -1
BITMAP
0000
E000
2000
4000
8000
E000
0000
ENDCHAR
STARTCHAR 123
ENCODING 123
SWIDTH 648 0
DWIDTH 9 0
BBX 9 7 0 -1
BITMAP
3000
4000
4000
C000
4000
4000
3000
ENDCHAR
STARTCHAR 124
ENCODING 124
SWIDTH 648 0
DWIDTH 9 0
BBX 9 7 0 -1
BITMAP
8000
8000
8000
0000
8000
8000
8000
ENDCHAR
STARTCHAR 125
ENCODING 125
SWIDTH 648 0
DWIDTH 9 0
BBX 9 7 0 -1
BITMAP
C000
2000
2000
3000
2000
2000
C000
ENDCHAR
STARTCHAR 126
ENCODING 126
SWIDTH 648 0
DWIDTH 9 0
BBX 9 7 0 -1
BITMAP
5000
A000
0000
0000
0000
0000
0000
ENDCHAR
STARTCHAR 127
ENCODING 127
SWIDTH 648 0
DWIDTH 9 0
BBX 9 7 0 -1
BITMAP
A800
5000
A800
5000
A800
5000
A800
ENDCHAR
STARTCHAR 128
ENCODING 128
SWIDTH 360 0
DWIDTH 5 0
BBX 5 7 0 -1
BITMAP
30
48
E0
40
E0
48
30
ENDCHAR
STARTCHAR 129
ENCODING 129
SWIDTH 648 0
DWIDTH 9 0
BBX 9 7 0 -1
BITMAP
0000
0000
0000
0000
0000
0000
0000
ENDCHAR
STARTCHAR 130
ENCODING 130
SWIDTH 648 0
DWIDTH 9 0
BBX 9 7 0 -1
BITMAP
0000
0000
0000
0000
0000
0000
0000
ENDCHAR
STARTCHAR 131
ENCODING 131
SWIDTH 648 0
DWIDTH 9 0
BBX 9 7 0 -1
BITMAP
0000
0000
0000
0000
0000
0000
0000
ENDCHAR
STARTCHAR 132
ENCODING 132
SWIDTH 648 0
DWIDTH 9 0
BBX 9 7 0 -1
BITMAP
0000
0000
0000
0000
0000
0000
0000
ENDCHAR
STARTCHAR 133
ENCODING 133
SWIDTH 648 0
DWIDTH 9 0
BBX 9 7 0 -1
BITMAP
0000
0000
0000
0000
0000
0000
0000
ENDCHAR
STARTCHAR 134
ENCODING 134
SWIDTH 648 0
DWIDTH 9 0
BBX 9 7 0 -1
BITMAP
0000
0000
0000
0000
0000
0000
0000
ENDCHAR
STARTCHAR 135
ENCODING 135
SWIDTH 648 0
DWIDTH 9 0
BBX 9 7 0 -1
BITMAP
0000
0000
0000
0000
0000
0000
0000
ENDCHAR
STARTCHAR 136
ENCODING 136
SWIDTH 648 0
DWIDTH 9 0
BBX 9 7 0 -1
BITMAP
0000
0000
0000
0000
0000
0000
0000
ENDCHAR
STARTCHAR 137
ENCODING 137
SWIDTH 648 0
DWIDTH 9 0
BBX 9 7 0 -1
BITMAP
0000
0000
0000
0000
0000
0000
0000
ENDCHAR
STARTCHAR 138
ENCODING 138
SWIDTH 648 0
DWIDTH 9 0
BBX 9 7 0 -1
BITMAP
0000
0000
0000
0000
0000
0000
0000
ENDCHAR
STARTCHAR 139
ENCODING 139
SWIDTH 648 0
DWIDTH 9 0
BBX 9 7 0 -1
BITMAP
0000
0000
0000
0000
0000
0000
0000
ENDCHAR
STARTCHAR 140
ENCODING 140
SWIDTH 648 0
DWIDTH 9 0
BBX 9 7 0 -1
BITMAP
0000
0000
0000
0000
0000
0000
0000
ENDCHAR
STARTCHAR 141
ENCODING 141
SWIDTH 648 0
DWIDTH 9 0
BBX 9 7 0 -1
BITMAP
0000
0000
0000
0000
0000
0000
0000
ENDCHAR
STARTCHAR 142
ENCODING 142
SWIDTH 648 0
DWIDTH 9 0
BBX 9 7 0 -1
BITMAP
0000
0000
0000
0000
0000
0000
0000
ENDCHAR
STARTCHAR 143
ENCODING 143
SWIDTH 648 0
DWIDTH 9 0
BBX 9 7 0 -1
BITMAP
0000
0000
0000
0000
0000
0000
0000
ENDCHAR
STARTCHAR 144
ENCODING 144
SWIDTH 648 0
DWIDTH 9 0
BBX 9 7 0 -1
BITMAP
0000
0000
0000
0000
0000
0000
0000
ENDCHAR
STARTCHAR 145
ENCODING 145
SWIDTH 648 0
DWIDTH 9 0
BBX 9 7 0 -1
BITMAP
0000
0000
0000
0000
0000
0000
0000
ENDCHAR
STARTCHAR 146
ENCODING 146
SWIDTH 648 0
DWIDTH 9 0
BBX 9 7 0 -1
BITMAP
0000
0000
0000
0000
0000
0000
0000
ENDCHAR
STARTCHAR 147
ENCODING 147
SWIDTH 648 0
DWIDTH 9 0
BBX 9 7 0 -1
BITMAP
0000
0000
0000
0000
0000
0000
0000
ENDCHAR
STARTCHAR 148
ENCODING 148
SWIDTH 648 0
DWIDTH 9 0
BBX 9 7 0 -1
BITMAP
0000
0000
0000
0000
0000
0000
0000
ENDCHAR
STARTCHAR 149
ENCODING 149
SWIDTH 648 0
DWIDTH 9 0
BBX 9 7 0 -1
BITMAP
0000
0000
0000
0000
0000
0000
0000
ENDCHAR
STARTCHAR 150
ENCODING 150
SWIDTH 648 0
DWIDTH 9 0
BBX 9 7 0 -1
BITMAP
0000
0000
0000
0000
0000
0000
0000
ENDCHAR
STARTCHAR 151
ENCODING 151
SWIDTH 648 0
DWIDTH 9 0
BBX 9 7 0 -1
BITMAP
0000
0000
0000
0000
0000
0000
0000
ENDCHAR
STARTCHAR 152
ENCODING 152
SWIDTH 648 0
DWIDTH 9 0
BBX 9 7 0 -1
BITMAP
0000
0000
0000
0000
0000
0000
0000
ENDCHAR
STARTCHAR 153
ENCODING 153
SWIDTH 648 0
DWIDTH 9 0
BBX 9 7 0 -1
BITMAP
0000
0000
0000
0000
0000
0000
0000
ENDCHAR
STARTCHAR 154
ENCODING 154
SWIDTH 648 0
DWIDTH 9 0
BBX 9 7 0 -1
BITMAP
0000
0000
0000
0000
0000
0000
0000
ENDCHAR
STARTCHAR 155
ENCODING 155
SWIDTH 648 0
DWIDTH 9 0
BBX 9 7 0 -1
BITMAP
0000
0000
0000
0000
0000
0000
0000
ENDCHAR
STARTCHAR 156
ENCODING 156
SWIDTH 648 0
DWIDTH 9 0
BBX 9 7 0 -1
BITMAP
0000
0000
0000
0000
0000
0000
0000
ENDCHAR
STARTCHAR 157
ENCODING 157
SWIDTH 648 0
DWIDTH 9 0
BBX 9 7 0 -1
BITMAP
0000
0000
0000
0000
0000
0000
0000
ENDCHAR
STARTCHAR 158
ENCODING 158
SWIDTH 648 0
DWIDTH 9 0
BBX 9 7 0 -1
BITMAP
0000
0000
0000
0000
0000
0000
0000
ENDCHAR
STARTCHAR 159
ENCODING 159
SWIDTH 648 0
DWIDTH 9 0
BBX 9 7 0 -1
BITMAP
0000
0000
0000
0000
0000
0000
0000
ENDCHAR
STARTCHAR 160
ENCODING 160
SWIDTH 648 0
DWIDTH 9 0
BBX 9 7 0 -1
BITMAP
0000
0000
0000
0000
0000
0000
0000
ENDCHAR
STARTCHAR 161
ENCODING 161
SWIDTH 648 0
DWIDTH 9 0
BBX 9 7 0 -1
BITMAP
0000
0000
0000
0000
0000
0000
0000
ENDCHAR
STARTCHAR 162
ENCODING 162
SWIDTH 648 0
DWIDTH 9 0
BBX 9 7 0 -1
BITMAP
0000
0000
0000
0000
0000
0000
0000
ENDCHAR
STARTCHAR 163
ENCODING 163
SWIDTH 648 0
DWIDTH 9 0
BBX 9 7 0 -1
BITMAP
0000
0000
0000
0000
0000
0000
0000
ENDCHAR
STARTCHAR 164
ENCODING 164
SWIDTH 648 0
DWIDTH 9 0
BBX 9 7 0 -1
BITMAP
0000
0000
0000
0000
0000
0000
0000
ENDCHAR
STARTCHAR 165
ENCODING 165
SWIDTH 648 0
DWIDTH 9 0
BBX 9 7 0 -1
BITMAP
0000
0000
0000
0000
0000
0000
0000
ENDCHAR
STARTCHAR 166
ENCODING 166
SWIDTH 648 0
DWIDTH 9 0
BBX 9 7 0 -1
BITMAP
0000
0000
0000
0000
0000
0000
0000
ENDCHAR
STARTCHAR 167
ENCODING 167
SWIDTH 648 0
DWIDTH 9 0
BBX 9 7 0 -1
BITMAP
0000
0000
0000
0000
0000
0000
0000
ENDCHAR
STARTCHAR 168
ENCODING 168
SWIDTH 648 0
DWIDTH 9 0
BBX 9 7 0 -1
BITMAP
0000
0000
0000
0000
0000
0000
0000
ENDCHAR
STARTCHAR 169
ENCODING 169
SWIDTH 648 0
DWIDTH 9 0
BBX 9 7 0 -1
BITMAP
0000
0000
0000
0000
0000
0000
0000
ENDCHAR
STARTCHAR 170
ENCODING 170
SWIDTH 648 0
DWIDTH 9 0
BBX 9 7 0 -1
BITMAP
0000
0000
0000
0000
0000
0000
0000
ENDCHAR
STARTCHAR 171
ENCODING 171
SWIDTH 648 0
DWIDTH 9 0
BBX 9 7 0 -1
BITMAP
0000
0000
0000
0000
0000
0000
0000
ENDCHAR
STARTCHAR 172
ENCODING 172
SWIDTH 648 0
DWIDTH 9 0
BBX 9 7 0 -1
BITMAP
0000
0000
0000
0000
0000
0000
0000
ENDCHAR
STARTCHAR 173
ENCODING 173
SWIDTH 648 0
DWIDTH 9 0
BBX 9 7 0 -1
BITMAP
0000
0000
0000
0000
0000
0000
0000
ENDCHAR
STARTCHAR 174
ENCODING 174
SWIDTH 648 0
DWIDTH 9 0
BBX 9 7 0 -1
BITMAP
0000
0000
0000
0000
0000
0000
0000
ENDCHAR
STARTCHAR 175
ENCODING 175
SWIDTH 648 0
DWIDTH 9 0
BBX 9 7 0 -1
BITMAP
0000
0000
0000
0000
0000
0000
0000
ENDCHAR
STARTCHAR 176
ENCODING 176
SWIDTH 648 0
DWIDTH 9 0
BBX 9 7 0 -1
BITMAP
0000
0000
0000
0000
0000
0000
0000
ENDCHAR
STARTCHAR 177
ENCODING 177
SWIDTH 648 0
DWIDTH 9 0
BBX 9 7 0 -1
BITMAP
0000
0000
0000
0000
0000
0000
0000
ENDCHAR
STARTCHAR 178
ENCODING 178
SWIDTH 648 0
DWIDTH 9 0
BBX 9 7 0 -1
BITMAP
0000
0000
0000
0000
0000
0000
0000
ENDCHAR
STARTCHAR 179
ENCODING 179
SWIDTH 648 0
DWIDTH 9 0
BBX 9 7 0 -1
BITMAP
0000
0000
0000
0000
0000
0000
0000
ENDCHAR
STARTCHAR 180
ENCODING 180
SWIDTH 648 0
DWIDTH 9 0
BBX 9 7 0 -1
BITMAP
0000
0000
0000
0000
0000
0000
0000
ENDCHAR
STARTCHAR 181
ENCODING 181
SWIDTH 648 0
DWIDTH 9 0
BBX 9 7 0 -1
BITMAP
0000
0000
0000
0000
0000
0000
0000
ENDCHAR
STARTCHAR 182
ENCODING 182
SWIDTH 648 0
DWIDTH 9 0
BBX 9 7 0 -1
BITMAP
0000
0000
0000
0000
0000
0000
0000
ENDCHAR
STARTCHAR 183
ENCODING 183
SWIDTH 648 0
DWIDTH 9 0
BBX 9 7 0 -1
BITMAP
0000
0000
0000
0000
0000
0000
0000
ENDCHAR
STARTCHAR 184
ENCODING 184
SWIDTH 648 0
DWIDTH 9 0
BBX 9 7 0 -1
BITMAP
0000
0000
0000
0000
0000
0000
0000
ENDCHAR
STARTCHAR 185
ENCODING 185
SWIDTH 648 0
DWIDTH 9 0
BBX 9 7 0 -1
BITMAP
0000
0000
0000
0000
0000
0000
0000
ENDCHAR
STARTCHAR 186
ENCODING 186
SWIDTH 648 0
DWIDTH 9 0
BBX 9 7 0 -1
BITMAP
0000
0000
0000
0000
0000
0000
0000
ENDCHAR
STARTCHAR 187
ENCODING 187
SWIDTH 648 0
DWIDTH 9 0
BBX 9 7 0 -1
BITMAP
0000
0000
0000
0000
0000
0000
0000
ENDCHAR
STARTCHAR 188
ENCODING 188
SWIDTH 648 0
DWIDTH 9 0
BBX 9 7 0 -1
BITMAP
0000
0000
0000
0000
0000
0000
0000
ENDCHAR
STARTCHAR 189
ENCODING 189
SWIDTH 648 0
DWIDTH 9 0
BBX 9 7 0 -1
BITMAP
0000
0000
0000
0000
0000
0000
0000
ENDCHAR
STARTCHAR 190
ENCODING 190
SWIDTH 648 0
DWIDTH 9 0
BBX 9 7 0 -1
BITMAP
0000
0000
0000
0000
0000
0000
0000
ENDCHAR
STARTCHAR 191
ENCODING 191
SWIDTH 648 0
DWIDTH 9 0
BBX 9 7 0 -1
BITMAP
0000
0000
0000
0000
0000
0000
0000
ENDCHAR
STARTCHAR 192
ENCODING 192
SWIDTH 648 0
DWIDTH 9 0
BBX 9 7 0 -1
BITMAP
0000
0000
0000
0000
0000
0000
0000
ENDCHAR
STARTCHAR 193
ENCODING 193
SWIDTH 648 0
DWIDTH 9 0
BBX 9 7 0 -1
BITMAP
0000
0000
0000
0000
0000
0000
0000
ENDCHAR
STARTCHAR 194
ENCODING 194
SWIDTH 648 0
DWIDTH 9 0
BBX 9 7 0 -1
BITMAP
0000
0000
0000
0000
0000
0000
0000
ENDCHAR
STARTCHAR 195
ENCODING 195
SWIDTH 648 0
DWIDTH 9 0
BBX 9 7 0 -1
BITMAP
0000
0000
0000
0000
0000
0000
0000
ENDCHAR
STARTCHAR 196
ENCODING 196
SWIDTH 648 0
DWIDTH 9 0
BBX 9 7 0 -1
BITMAP
0000
0000
0000
0000
0000
0000
0000
ENDCHAR
STARTCHAR 197
ENCODING 197
SWIDTH 648 0
DWIDTH 9 0
BBX 9 7 0 -1
BITMAP
0000
0000
0000
0000
0000
0000
0000
ENDCHAR
STARTCHAR 198
ENCODING 198
SWIDTH 648 0
DWIDTH 9 0
BBX 9 7 0 -1
BITMAP
0000
0000
0000
0000
0000
0000
0000
ENDCHAR
STARTCHAR 199
ENCODING 199
SWIDTH 648 0
DWIDTH 9 0
BBX 9 7 0 -1
BITMAP
0000
0000
0000
0000
0000
0000
0000
ENDCHAR
STARTCHAR 200
ENCODING 200
SWIDTH 648 0
DWIDTH 9 0
BBX 9 7 0 -1
BITMAP
0000
0000
0000
0000
0000
0000
0000
ENDCHAR
STARTCHAR 201
ENCODING 201
SWIDTH 648 0
DWIDTH 9 0
BBX 9 7 0 -1
BITMAP
0000
0000
0000
0000
0000
0000
0000
ENDCHAR
STARTCHAR 202
ENCODING 202
SWIDTH 648 0
DWIDTH 9 0
BBX 9 7 0 -1
BITMAP
0000
0000
0000
0000
0000
0000
0000
ENDCHAR
STARTCHAR 203
ENCODING 203
SWIDTH 648 0
DWIDTH 9 0
BBX 9 7 0 -1
BITMAP
0000
0000
0000
0000
0000
0000
0000
ENDCHAR
STARTCHAR 204
ENCODING 204
SWIDTH 648 0
DWIDTH 9 0
BBX 9 7 0 -1
BITMAP
0000
0000
0000
0000
0000
0000
0000
ENDCHAR
STARTCHAR 205
ENCODING 205
SWIDTH 648 0
DWIDTH 9 0
BBX 9 7 0 -1
BITMAP
0000
0000
0000
0000
0000
0000
0000
ENDCHAR
STARTCHAR 206
ENCODING 206
SWIDTH 648 0
DWIDTH 9 0
BBX 9 7 0 -1
BITMAP
0000
0000
0000
0000
0000
0000
0000
ENDCHAR
STARTCHAR 207
ENCODING 207
SWIDTH 648 0
DWIDTH 9 0
BBX 9 7 0 -1
BITMAP
0000
0000
0000
0000
0000
0000
0000
ENDCHAR
STARTCHAR 208
ENCODING 208
SWIDTH 648 0
DWIDTH 9 0
BBX 9 7 0 -1
BITMAP
0000
0000
0000
0000
0000
0000
0000
ENDCHAR
STARTCHAR 209
ENCODING 209
SWIDTH 648 0
DWIDTH 9 0
BBX 9 7 0 -1
BITMAP
0000
0000
0000
0000
0000
0000
0000
ENDCHAR
STARTCHAR 210
ENCODING 210
SWIDTH 648 0
DWIDTH 9 0
BBX 9 7 0 -1
BITMAP
0000
0000
0000
0000
0000
0000
0000
ENDCHAR
STARTCHAR 211
ENCODING 211
SWIDTH 648 0
DWIDTH 9 0
BBX 9 7 0 -1
BITMAP
0000
0000
0000
0000
0000
0000
0000
ENDCHAR
STARTCHAR 212
ENCODING 212
SWIDTH 648 0
DWIDTH 9 0
BBX 9 7 0 -1
BITMAP
6000
0000
6000
9000
9000
6000
0000
ENDCHAR
STARTCHAR 213
ENCODING 213
SWIDTH 648 0
DWIDTH 9 0
BBX 9 7 0 -1
BITMAP
0000
0000
0000
0000
0000
0000
0000
ENDCHAR
STARTCHAR 214
ENCODING 214
SWIDTH 648 0
DWIDTH 9 0
BBX 9 7 0 -1
BITMAP
0000
0000
0000
0000
0000
0000
0000
ENDCHAR
STARTCHAR 215
ENCODING 215
SWIDTH 648 0
DWIDTH 9 0
BBX 9 7 0 -1
BITMAP
0000
0000
0000
0000
0000
0000
0000
ENDCHAR
STARTCHAR 216
ENCODING 216
SWIDTH 648 0
DWIDTH 9 0
BBX 9 7 0 -1
BITMAP
0000
0000
0000
0000
0000
0000
0000
ENDCHAR
STARTCHAR 217
ENCODING 217
SWIDTH 648 0
DWIDTH 9 0
BBX 9 7 0 -1
BITMAP
4000
2800
8800
8800
8800
7800
0000
ENDCHAR
STARTCHAR 218
ENCODING 218
SWIDTH 648 0
DWIDTH 9 0
BBX 9 7 0 -1
BITMAP
1000
A800
8800
8800
8800
7800
0000
ENDCHAR
STARTCHAR 219
ENCODING 219
SWIDTH 648 0
DWIDTH 9 0
BBX 9 7 0 -1
BITMAP
2000
5000
8800
8800
8800
7800
0000
ENDCHAR
STARTCHAR 220
ENCODING 220
SWIDTH 648 0
DWIDTH 9 0
BBX 9 7 0 -1
BITMAP
5000
8800
8800
8800
8800
7800
0000
ENDCHAR
STARTCHAR 221
ENCODING 221
SWIDTH 648 0
DWIDTH 9 0
BBX 9 7 0 -1
BITMAP
1000
A800
8800
7000
2000
2000
0000
ENDCHAR
STARTCHAR 222
ENCODING 222
SWIDTH 648 0
DWIDTH 9 0
BBX 9 7 0 -1
BITMAP
0000
8000
C000
A000
A000
C000
8000
ENDCHAR
STARTCHAR 223
ENCODING 223
SWIDTH 648 0
DWIDTH 9 0
BBX 9 7 0 -1
BITMAP
7000
4800
7000
4800
4800
7000
C000
ENDCHAR
STARTCHAR 224
ENCODING 224
SWIDTH 648 0
DWIDTH 9 0
BBX 9 7 0 -1
BITMAP
4000
E000
1000
7000
9000
7000
0000
ENDCHAR
STARTCHAR 225
ENCODING 225
SWIDTH 648 0
DWIDTH 9 0
BBX 9 7 0 -1
BITMAP
2000
E000
1000
7000
9000
7000
0000
ENDCHAR
STARTCHAR 226
ENCODING 226
SWIDTH 648 0
DWIDTH 9 0
BBX 9 7 0 -1
BITMAP
6000
E000
1000
7000
9000
7000
0000
ENDCHAR
STARTCHAR 227
ENCODING 227
SWIDTH 648 0
DWIDTH 9 0
BBX 9 7 0 -1
BITMAP
5000
E000
1000
7000
9000
7000
0000
ENDCHAR
STARTCHAR 228
ENCODING 228
SWIDTH 648 0
DWIDTH 9 0
BBX 9 7 0 -1
BITMAP
9000
E000
1000
7000
9000
7000
0000
ENDCHAR
STARTCHAR 229
ENCODING 229
SWIDTH 648 0
DWIDTH 9 0
BBX 9 7 0 -1
BITMAP
6000
E000
1000
7000
9000
7000
0000
ENDCHAR
STARTCHAR 230
ENCODING 230
SWIDTH 648 0
DWIDTH 9 0
BBX 9 7 0 -1
BITMAP
0000
D800
2000
7000
A000
7800
0000
ENDCHAR
STARTCHAR 231
ENCODING 231
SWIDTH 648 0
DWIDTH 9 0
BBX 9 7 0 -1
BITMAP
0000
6000
9000
8000
9000
6000
C000
ENDCHAR
STARTCHAR 232
ENCODING 232
SWIDTH 648 0
DWIDTH 9 0
BBX 9 7 0 -1
BITMAP
4000
6000
9000
F000
8000
7000
0000
ENDCHAR
STARTCHAR 233
ENCODING 233
SWIDTH 648 0
DWIDTH 9 0
BBX 9 7 0 -1
BITMAP
2000
6000
9000
F000
8000
7000
0000
ENDCHAR
STARTCHAR 234
ENCODING 234
SWIDTH 648 0
DWIDTH 9 0
BBX 9 7 0 -1
BITMAP
6000
6000
9000
F000
8000
7000
0000
ENDCHAR
STARTCHAR 235
ENCODING 235
SWIDTH 648 0
DWIDTH 9 0
BBX 9 7 0 -1
BITMAP
9000
6000
9000
F000
8000
7000
0000
ENDCHAR
STARTCHAR 236
ENCODING 236
SWIDTH 648 0
DWIDTH 9 0
BBX 9 7 0 -1
BITMAP
8000
4000
0000
8000
8000
8000
0000
ENDCHAR
STARTCHAR 237
ENCODING 237
SWIDTH 648 0
DWIDTH 9 0
BBX 9 7 0 -1
BITMAP
4000
8000
0000
8000
8000
8000
0000
ENDCHAR
STARTCHAR 238
ENCODING 238
SWIDTH 216 0
DWIDTH 3 0
BBX 3 7 0 -1
BITMAP
40
A0
00
40
40
40
00
ENDCHAR
STARTCHAR 239
ENCODING 239
SWIDTH 216 0
DWIDTH 3 0
BBX 3 7 0 -1
BITMAP
A0
00
40
40
40
40
00
ENDCHAR
STARTCHAR 240
ENCODING 240
SWIDTH 648 0
DWIDTH 9 0
BBX 9 7 0 -1
BITMAP
6000
6000
9000
9000
9000
6000
0000
ENDCHAR
STARTCHAR 241
ENCODING 241
SWIDTH 648 0
DWIDTH 9 0
BBX 9 7 0 -1
BITMAP
5000
E000
9000
9000
9000
9000
0000
ENDCHAR
STARTCHAR 242
ENCODING 242
SWIDTH 648 0
DWIDTH 9 0
BBX 9 7 0 -1
BITMAP
4000
6000
9000
9000
9000
6000
0000
ENDCHAR
STARTCHAR 243
ENCODING 243
SWIDTH 648 0
DWIDTH 9 0
BBX 9 7 0 -1
BITMAP
2000
6000
9000
9000
9000
6000
0000
ENDCHAR
STARTCHAR 244
ENCODING 244
SWIDTH 648 0
DWIDTH 9 0
BBX 9 7 0 -1
BITMAP
6000
6000
9000
9000
9000
6000
0000
ENDCHAR
STARTCHAR 245
ENCODING 245
SWIDTH 648 0
DWIDTH 9 0
BBX 9 7 0 -1
BITMAP
5000
6000
9000
9000
9000
6000
0000
ENDCHAR
STARTCHAR 246
ENCODING 246
SWIDTH 648 0
DWIDTH 9 0
BBX 9 7 0 -1
BITMAP
9000
6000
9000
9000
9000
6000
0000
ENDCHAR
STARTCHAR 247
ENCODING 247
SWIDTH 648 0
DWIDTH 9 0
BBX 9 7 0 -1
BITMAP
0000
2000
0000
F800
0000
2000
0000
ENDCHAR
STARTCHAR 248
ENCODING 248
SWIDTH 648 0
DWIDTH 9 0
BBX 9 7 0 -1
BITMAP
7800
9800
A800
A800
C800
F000
0000
ENDCHAR
STARTCHAR 249
ENCODING 249
SWIDTH 648 0
DWIDTH 9 0
BBX 9 7 0 -1
BITMAP
4000
A800
8800
8800
8800
7800
0000
ENDCHAR
STARTCHAR 250
ENCODING 250
SWIDTH 648 0
DWIDTH 9 0
BBX 9 7 0 -1
BITMAP
1000
A800
8800
8800
8800
7800
0000
ENDCHAR
STARTCHAR 251
ENCODING 251
SWIDTH 360 0
DWIDTH 5 0
BBX 5 7 0 -1
BITMAP
20
D8
88
88
88
78
00
ENDCHAR
STARTCHAR 252
ENCODING 252
SWIDTH 360 0
DWIDTH 5 0
BBX 5 7 0 -1
BITMAP
50
88
88
88
88
78
00
ENDCHAR
STARTCHAR 253
ENCODING 253
SWIDTH 360 0
DWIDTH 5 0
BBX 5 7 0 -1
BITMAP
10
A8
88
70
20
20
00
ENDCHAR
STARTCHAR 254
ENCODING 254
SWIDTH 288 0
DWIDTH 4 0
BBX 4 7 0 -1
BITMAP
80
E0
90
90
90
E0
80
ENDCHAR
STARTCHAR 255
ENCODING 255
SWIDTH 648 0
DWIDTH 9 0
BBX 9 7 0 -1
BITMAP
0000
0000
0000
0000
0000
0000
0000
ENDCHAR
ENDFONT
